<svg aria-hidden="true" style="position: absolute; width: 0; height: 0; overflow: hidden;" version="1.1" xmlns="http://www.w3.org/2000/svg" xmlns:xlink="http://www.w3.org/1999/xlink">
<defs>
<symbol id="icon-logo" viewBox="0 0 35 32">
<path d="M6.803 0.147c-0.197-0.197-0.515-0.197-0.712 0l-2.616 2.616-2.616-2.616c-0.197-0.197-0.515-0.197-0.712 0s-0.197 0.515 0 0.712l2.616 2.616-2.616 2.616c-0.197 0.197-0.197 0.515 0 0.712 0.098 0.098 0.227 0.147 0.356 0.147s0.258-0.049 0.356-0.147l2.616-2.616 2.616 2.616c0.098 0.098 0.227 0.147 0.356 0.147s0.258-0.049 0.356-0.147c0.197-0.197 0.197-0.515 0-0.712l-2.616-2.616 2.616-2.616c0.197-0.196 0.197-0.515 0-0.712z"></path>
<path d="M6.803 10.024c-0.197-0.197-0.515-0.197-0.712 0l-2.616 2.616-2.616-2.616c-0.197-0.197-0.515-0.197-0.712 0s-0.197 0.515 0 0.712l2.616 2.616-2.616 2.616c-0.197 0.196-0.197 0.515 0 0.712 0.098 0.098 0.227 0.147 0.356 0.147s0.258-0.049 0.356-0.147l2.616-2.616 2.616 2.616c0.098 0.098 0.227 0.147 0.356 0.147s0.258-0.049 0.356-0.147c0.197-0.197 0.197-0.515 0-0.712l-2.616-2.616 2.616-2.616c0.196-0.196 0.196-0.515-0-0.712z"></path>
<path d="M6.803 19.901c-0.197-0.196-0.515-0.196-0.712 0l-2.616 2.616-2.616-2.616c-0.197-0.196-0.515-0.196-0.712 0s-0.197 0.515 0 0.712l2.616 2.616-2.616 2.616c-0.197 0.197-0.197 0.515 0 0.712 0.098 0.098 0.227 0.148 0.356 0.148s0.258-0.049 0.356-0.148l2.616-2.616 2.616 2.616c0.098 0.098 0.227 0.148 0.356 0.148s0.258-0.049 0.356-0.148c0.197-0.196 0.197-0.515 0-0.712l-2.616-2.616 2.616-2.616c0.196-0.196 0.196-0.515-0-0.712z"></path>
<path d="M10.235 6.803c0.098 0.098 0.227 0.147 0.356 0.147s0.258-0.049 0.356-0.147l2.616-2.616 2.616 2.616c0.098 0.098 0.227 0.147 0.356 0.147s0.258-0.049 0.356-0.147c0.197-0.197 0.197-0.515 0-0.712l-2.616-2.616 2.616-2.616c0.197-0.197 0.197-0.515 0-0.712s-0.515-0.197-0.712 0l-2.616 2.616-2.616-2.616c-0.197-0.197-0.515-0.197-0.712 0s-0.197 0.515 0 0.712l2.616 2.616-2.616 2.616c-0.197 0.196-0.197 0.515-0 0.712z"></path>
<path d="M20.322 6.803c0.098 0.098 0.227 0.147 0.356 0.147s0.258-0.049 0.356-0.147l2.616-2.616 2.616 2.616c0.098 0.098 0.227 0.147 0.356 0.147s0.258-0.049 0.356-0.147c0.197-0.197 0.197-0.515 0-0.712l-2.616-2.616 2.616-2.616c0.197-0.197 0.197-0.515 0-0.712s-0.515-0.197-0.712 0l-2.616 2.616-2.616-2.616c-0.197-0.197-0.515-0.197-0.712 0s-0.197 0.515 0 0.712l2.616 2.616-2.616 2.616c-0.197 0.196-0.197 0.515-0 0.712z"></path>
<path d="M10.235 16.68c0.098 0.098 0.227 0.147 0.356 0.147s0.258-0.049 0.356-0.147l2.616-2.616 2.616 2.616c0.098 0.098 0.227 0.147 0.356 0.147s0.258-0.049 0.356-0.147c0.197-0.197 0.197-0.515 0-0.712l-2.616-2.616 2.616-2.616c0.197-0.197 0.197-0.515 0-0.712s-0.515-0.197-0.712 0l-2.616 2.616-2.616-2.616c-0.197-0.197-0.515-0.197-0.712 0s-0.197 0.515 0 0.712l2.616 2.616-2.616 2.616c-0.197 0.196-0.197 0.515-0 0.712z"></path>
<path d="M34.207 3.725c-0.184-0.184-0.479-0.197-0.679-0.030l-21.125 17.664-1.457-1.457c-0.197-0.196-0.515-0.196-0.712 0s-0.196 0.515 0 0.712l1.394 1.394-0.465 0.388c-0.667 0.557-1.071 1.375-1.11 2.243s0.292 1.718 0.906 2.333c0.582 0.582 1.376 0.909 2.196 0.909 0.046 0 0.091-0.001 0.137-0.003 0.868-0.039 1.686-0.443 2.243-1.11l0.389-0.465 1.045 1.045c0.602 0.602 1.393 0.903 2.184 0.903s1.582-0.301 2.184-0.903l2.642-2.642c0.393-0.393 0.916-0.61 1.472-0.61s1.079 0.217 1.472 0.61l0.753 0.753c0.196 0.197 0.515 0.196 0.712 0s0.197-0.515-0-0.712l-0.753-0.753c-1.204-1.204-3.164-1.204-4.368 0l-2.642 2.642c-0.812 0.812-2.133 0.812-2.945 0l-1.108-1.108 3.245-3.88c0.178-0.213 0.15-0.531-0.063-0.709s-0.531-0.15-0.709 0.063l-3.187 3.811-1.014-1.014 0.435-0.435c0.197-0.197 0.197-0.515 0-0.712s-0.515-0.197-0.712 0l-1.576 1.576c-0.197 0.197-0.197 0.515 0 0.712 0.098 0.098 0.227 0.148 0.356 0.148s0.258-0.049 0.356-0.148l0.429-0.429 1.078 1.078-0.446 0.534c-0.382 0.457-0.921 0.723-1.516 0.75-0.594 0.026-1.155-0.191-1.577-0.612s-0.639-0.981-0.612-1.577c0.026-0.595 0.293-1.133 0.75-1.516l18.037-15.083-9.291 11.111c-0.178 0.213-0.15 0.531 0.063 0.709s0.531 0.15 0.709-0.063l12.909-15.438c0.167-0.2 0.154-0.494-0.030-0.679z"></path>
<path d="M30.053 26.413c-0.197-0.197-0.515-0.197-0.712 0s-0.197 0.515 0 0.712l3.984 3.984c0.098 0.098 0.227 0.147 0.356 0.147s0.258-0.049 0.356-0.147c0.197-0.197 0.197-0.515 0-0.712l-3.984-3.984z"></path>
</symbol>
<symbol id="icon-facet" viewBox="0 0 32 32">
<path d="M3.339 31.564c-0.923 0-1.711-0.325-2.362-0.975s-0.977-1.433-0.977-2.351c0-0.921 0.326-1.707 0.977-2.361s1.439-0.98 2.362-0.98c0.179 0 0.35 0.012 0.513 0.036s0.333 0.068 0.513 0.133l8.258-8.258c-0.217-0.58-0.248-1.179-0.092-1.796s0.452-1.149 0.889-1.596c0.437-0.447 0.966-0.745 1.586-0.894s1.221-0.115 1.801 0.102l8.21-8.209c-0.032-0.186-0.060-0.367-0.084-0.543s-0.036-0.354-0.036-0.531c0-0.923 0.324-1.711 0.972-2.362s1.432-0.977 2.353-0.977c0.921 0 1.708 0.325 2.361 0.975s0.98 1.433 0.98 2.351c0 0.921-0.326 1.707-0.977 2.361s-1.439 0.98-2.362 0.98c-0.265 0-0.639-0.040-1.122-0.12l-8.161 8.161c0.185 0.613 0.211 1.229 0.078 1.85s-0.422 1.154-0.868 1.599c-0.466 0.474-1.009 0.769-1.63 0.886s-1.253 0.083-1.898-0.102l-7.829 7.829h5.976c0.267-0.581 0.673-1.038 1.216-1.372s1.133-0.501 1.767-0.501c0.665 0 1.269 0.167 1.813 0.501s0.952 0.791 1.223 1.372h6.436c0.309-0.584 0.729-1.043 1.259-1.375s1.111-0.498 1.741-0.498c0.923 0 1.711 0.324 2.362 0.972s0.977 1.432 0.977 2.353c0 0.921-0.326 1.708-0.977 2.361s-1.439 0.98-2.362 0.98c-0.646 0-1.24-0.167-1.783-0.5s-0.949-0.795-1.216-1.385h-6.426c-0.278 0.581-0.69 1.040-1.235 1.377s-1.139 0.507-1.781 0.507c-0.646 0-1.243-0.167-1.789-0.5s-0.954-0.795-1.223-1.385h-6.42c-0.274 0.588-0.683 1.049-1.226 1.383s-1.139 0.501-1.786 0.501zM3.342 19.109c-0.918 0-1.704-0.323-2.359-0.97s-0.983-1.429-0.983-2.347c0-0.919 0.325-1.705 0.974-2.358s1.431-0.98 2.348-0.98 1.703 0.324 2.36 0.971c0.657 0.647 0.986 1.43 0.986 2.347s-0.326 1.703-0.977 2.356c-0.651 0.654-1.434 0.98-2.348 0.98zM3.337 6.667c-0.916 0-1.702-0.324-2.355-0.972s-0.981-1.432-0.981-2.353c0-0.921 0.325-1.708 0.975-2.361s1.433-0.98 2.351-0.98c0.921 0 1.707 0.324 2.361 0.973s0.98 1.431 0.98 2.347c0 0.916-0.326 1.703-0.978 2.36s-1.436 0.986-2.352 0.986zM15.791 6.667c-0.918 0-1.703-0.326-2.356-0.977s-0.98-1.434-0.98-2.348c0-0.918 0.323-1.704 0.97-2.359s1.429-0.983 2.347-0.983c0.919 0 1.705 0.325 2.358 0.974s0.98 1.431 0.98 2.348-0.324 1.703-0.971 2.36c-0.647 0.657-1.43 0.986-2.347 0.986zM28.242 19.109c-0.916 0-1.703-0.324-2.36-0.971s-0.986-1.43-0.986-2.347 0.326-1.703 0.977-2.356c0.651-0.654 1.434-0.98 2.348-0.98 0.918 0 1.704 0.323 2.359 0.97s0.983 1.429 0.983 2.347c0 0.919-0.325 1.705-0.974 2.358s-1.431 0.98-2.348 0.98z"></path>
</symbol>
<symbol id="icon-moon" viewBox="0 0 35 32">
<path d="M19.523 31.867h-4.716l0.451-0.428c0.301-0.285 0.632-0.594 0.993-0.925s0.692-0.64 0.993-0.925l0.451-0.428h1.64c2.574 0.026 4.968-0.708 7.182-2.2s3.964-3.35 5.25-5.573c-2.362-0.239-4.633-0.807-6.815-1.703s-4.106-2.175-5.774-3.836c-1.674-1.654-2.953-3.564-3.836-5.729s-1.447-4.415-1.693-6.75c-2.219 1.267-4.050 2.951-5.493 5.053s-2.177 4.427-2.203 6.979v0.46c0 0.169 0.013 0.32 0.040 0.451l-0.414 0.158c-0.276 0.105-0.583 0.215-0.919 0.33s-0.643 0.225-0.92 0.33l-0.414 0.158c-0.045-0.334-0.074-0.639-0.088-0.914s-0.020-0.545-0.020-0.809c0-3.673 1.070-6.909 3.21-9.709s4.933-4.732 8.379-5.797c0.239-0.060 0.463-0.075 0.672-0.045s0.39 0.116 0.542 0.259 0.282 0.311 0.388 0.506c0.106 0.194 0.149 0.415 0.129 0.664-0.134 2.382 0.167 4.635 0.903 6.758s1.959 4.035 3.666 5.737c1.763 1.768 3.671 2.995 5.723 3.682s4.303 0.982 6.751 0.888c0.241-0.014 0.462 0.037 0.664 0.154s0.375 0.252 0.522 0.408c0.146 0.156 0.226 0.343 0.239 0.562s-0.023 0.451-0.11 0.696c-1.194 3.5-3.089 6.299-5.687 8.395s-5.827 3.145-9.687 3.145zM8.163 29.132h7.2c0.844 0 1.561-0.292 2.152-0.876s0.886-1.298 0.886-2.142c0-0.844-0.289-1.563-0.867-2.157s-1.278-0.89-2.1-0.89h-1.664l-0.64-1.505c-0.433-1-1.096-1.797-1.99-2.392s-1.873-0.896-2.939-0.902c-1.495 0-2.782 0.533-3.859 1.598s-1.616 2.344-1.616 3.836c0 1.513 0.529 2.796 1.586 3.85s2.341 1.581 3.852 1.581zM8.163 31.867c-2.255 0-4.179-0.796-5.773-2.389s-2.39-3.518-2.39-5.777 0.797-4.186 2.39-5.779c1.593-1.593 3.518-2.39 5.773-2.39 1.614 0 3.091 0.435 4.429 1.305s2.337 2.038 2.996 3.505c1.539 0.079 2.847 0.671 3.923 1.778s1.614 2.434 1.614 3.985c0 1.588-0.563 2.946-1.69 4.072s-2.484 1.69-4.072 1.69h-7.2z"></path>
</symbol>
<symbol id="icon-palm" viewBox="0 0 28 32">
<path d="M12.069 31.756c-0.654 0-1.28-0.152-1.877-0.457s-1.074-0.736-1.43-1.292l-8.606-12.873c-0.142-0.219-0.187-0.463-0.134-0.732s0.179-0.487 0.378-0.653c0.428-0.356 0.918-0.581 1.471-0.676s1.12 0.076 1.7 0.511l4.072 3.105v-14.642c0-0.323 0.112-0.596 0.336-0.818s0.498-0.333 0.824-0.333c0.326 0 0.598 0.111 0.816 0.333s0.328 0.495 0.328 0.818v16.572c0 0.513-0.222 0.877-0.667 1.092s-0.868 0.175-1.269-0.119l-4.089-2.991 6.753 10.111c0.161 0.245 0.359 0.429 0.594 0.554s0.5 0.187 0.797 0.187h10.376c0.879 0 1.618-0.299 2.217-0.898s0.898-1.337 0.898-2.217v-20.886c0-0.323 0.112-0.596 0.336-0.818s0.498-0.333 0.824-0.333c0.325 0 0.597 0.111 0.816 0.333s0.328 0.495 0.328 0.818v20.886c0 1.516-0.524 2.798-1.572 3.846s-2.33 1.572-3.846 1.572h-10.373zM14.779 0c0.326 0 0.598 0.111 0.818 0.333s0.33 0.495 0.33 0.819v13.681c0 0.323-0.112 0.596-0.336 0.819s-0.498 0.333-0.824 0.333c-0.325 0-0.596-0.111-0.812-0.333s-0.324-0.495-0.324-0.819v-13.681c0-0.323 0.11-0.596 0.33-0.819s0.492-0.333 0.818-0.333zM20.769 1.456c0.323 0 0.593 0.111 0.81 0.333s0.326 0.495 0.326 0.818v12.225c0 0.323-0.111 0.596-0.334 0.819s-0.496 0.333-0.82 0.333c-0.324 0-0.595-0.111-0.814-0.333s-0.328-0.495-0.328-0.819v-12.225c0-0.323 0.112-0.596 0.335-0.818s0.498-0.334 0.823-0.334z"></path>
</symbol>
<symbol id="icon-user" viewBox="0 0 42 32">
<path d="M25.433 3.393c-0.483 0-0.885-0.164-1.205-0.491s-0.48-0.732-0.48-1.212 0.16-0.883 0.48-1.206c0.32-0.323 0.722-0.484 1.205-0.484h14.865c0.48 0 0.883 0.164 1.208 0.491s0.488 0.733 0.488 1.217c0 0.481-0.163 0.882-0.488 1.203s-0.728 0.482-1.208 0.482h-14.865zM25.433 11.787c-0.483 0-0.885-0.164-1.205-0.491s-0.48-0.732-0.48-1.215c0-0.482 0.16-0.882 0.48-1.199s0.722-0.476 1.205-0.476h14.865c0.48 0 0.883 0.161 1.208 0.483s0.488 0.725 0.488 1.211c0 0.482-0.163 0.884-0.488 1.205s-0.728 0.482-1.208 0.482h-14.865zM25.433 20.181c-0.477 0-0.877-0.162-1.2-0.486s-0.485-0.725-0.485-1.205c0-0.479 0.162-0.878 0.485-1.198s0.723-0.479 1.2-0.479h14.865c0.48 0 0.883 0.162 1.208 0.486s0.488 0.725 0.488 1.205c0 0.479-0.163 0.878-0.488 1.198s-0.728 0.479-1.208 0.479h-14.865zM12.655 18.858c-1.835 0-3.353-0.604-4.555-1.813s-1.803-2.731-1.803-4.565 0.603-3.355 1.81-4.562c1.206-1.206 2.724-1.809 4.555-1.809 1.835 0 3.355 0.604 4.562 1.812s1.81 2.728 1.81 4.562c0 1.837-0.604 3.358-1.813 4.565s-2.73 1.81-4.565 1.81zM0 30.197v-1.919c0-0.696 0.167-1.359 0.501-1.989s0.78-1.077 1.338-1.342c1.565-1.118 3.279-1.947 5.144-2.489s3.756-0.812 5.674-0.812c1.918 0 3.802 0.297 5.65 0.89s3.576 1.397 5.183 2.411c0.525 0.369 0.962 0.841 1.313 1.416s0.526 1.214 0.526 1.915v1.919c0 0.505-0.169 0.926-0.507 1.264s-0.755 0.507-1.251 0.507h-21.813c-0.496 0-0.913-0.169-1.252-0.507s-0.507-0.759-0.507-1.264zM3.111 28.019v0.568h19.097v-0.568c-1.342-0.895-2.89-1.617-4.645-2.168s-3.389-0.826-4.903-0.826c-1.514 0-3.157 0.275-4.929 0.826s-3.312 1.273-4.619 2.168zM12.659 15.477c0.895 0 1.617-0.277 2.168-0.832s0.826-1.275 0.826-2.162c0-0.895-0.275-1.617-0.826-2.168s-1.273-0.826-2.168-0.826c-0.895 0-1.617 0.275-2.168 0.826s-0.826 1.273-0.826 2.168c0 0.886 0.275 1.607 0.826 2.162s1.273 0.832 2.168 0.832z"></path>
</symbol>
</defs>
</svg>